<svg xmlns="http://www.w3.org/2000/svg" xmlns:xlink="http://www.w3.org/1999/xlink" viewBox="0 0 85.59 85.14"><defs><mask id="a" x="0.44" y="-0.01" width="85.15" height="85.16" maskUnits="userSpaceOnUse"><path d="M1.37,33.76A42.58,42.58,0,0,0,34.21,84.22h0A42.58,42.58,0,0,0,84.67,51.38h0A42.58,42.58,0,0,0,51.83.92h0A42.67,42.67,0,0,0,43,0h0A42.59,42.59,0,0,0,1.37,33.76Z" fill="#fff" fill-rule="evenodd"/></mask><mask id="d" x="0.44" y="-0.01" width="85.15" height="85.16" maskUnits="userSpaceOnUse"><path d="M1.37,33.76A42.58,42.58,0,0,0,34.21,84.22h0A42.58,42.58,0,0,0,84.67,51.38h0A42.58,42.58,0,0,0,51.83.92h0A42.67,42.67,0,0,0,43,0h0A42.59,42.59,0,0,0,1.37,33.76" fill="#fff" fill-rule="evenodd"/></mask><mask id="h" x="0" y="-0.01" width="85.6" height="85.16" maskUnits="userSpaceOnUse"><path d="M1.37,33.76A42.58,42.58,0,0,0,34.21,84.22h0A42.58,42.58,0,0,0,84.67,51.38h0A42.58,42.58,0,0,0,51.83.92h0A42.67,42.67,0,0,0,43,0h0A42.59,42.59,0,0,0,1.37,33.76" fill="#fff" fill-rule="evenodd"/></mask></defs><path d="M.47,41.32A42.57,42.57,0,1,0,44.27,0,42.57,42.57,0,0,0,.47,41.32" fill="#ef4024" fill-rule="evenodd"/><g mask="url(#a)"><polygon points="56.54 55 70.27 63.38 71.95 60.64 58.22 52.26 56.54 55" fill="#00ae8c" fill-rule="evenodd"/></g><g mask="url(#a)"><polygon points="54.98 57.57 62.46 62.14 67.27 54.26 59.78 49.69 54.98 57.57" fill="#00ae8c" fill-rule="evenodd"/></g><g mask="url(#a)"><polygon points="55.73 56.34 67.34 63.42 70.64 58.01 59.03 50.93 55.73 56.34" fill="#00ae8c" fill-rule="evenodd"/></g><g mask="url(#d)"><path d="M71.11,62c5.06,3.36,5.6-2.8,12.68,1.94" fill="none" stroke="#00ae8c" stroke-width="1.5"/></g><g mask="url(#a)"><polygon points="13.3 28.61 27.03 36.99 28.7 34.25 14.97 25.87 13.3 28.61" fill="#00ae8c" fill-rule="evenodd"/></g><g mask="url(#a)"><polygon points="14.61 31.24 26.21 38.32 29.51 32.91 17.91 25.83 14.61 31.24" fill="#00ae8c" fill-rule="evenodd"/></g><g mask="url(#a)"><polygon points="17.98 34.99 25.46 39.56 30.27 31.68 22.79 27.11 17.98 34.99" fill="#00ae8c" fill-rule="evenodd"/></g><g mask="url(#h)"><path d="M.4,25.36C7.3,29.78,7,22.93,14.13,27.24" fill="none" stroke="#00ae8c" stroke-width="1.5"/></g><g mask="url(#d)"><path d="M21.53,37.16a4.62,4.62,0,1,0,.91-8.31.34.34,0,0,1-.4-.5l5.14-8.42,8.42,5.14a.34.34,0,0,0,.5-.41,4.62,4.62,0,1,1,5,3.07.35.35,0,0,0-.12.64l8.42,5.14-5.14,8.42a.35.35,0,0,1-.64-.13,4.59,4.59,0,0,0-2.13-3.25,4.61,4.61,0,1,0-4.83,7.86,4.59,4.59,0,0,0,3.89.42.35.35,0,0,1,.41.51l-5.14,8.42L13.59,42.18l5.14-8.42a.35.35,0,0,1,.64.13,4.6,4.6,0,0,0,2.16,3.27" fill="#015efe" fill-rule="evenodd"/></g><g mask="url(#d)"><path d="M63.75,52.11a4.6,4.6,0,0,1,2.13,3.25.34.34,0,0,0,.63.13l5.14-8.42-8.42-5.14a.35.35,0,0,0-.51.41,4.55,4.55,0,0,1-.4,3.86,4.62,4.62,0,1,1-7.9-4.78,4.59,4.59,0,0,1,3.27-2.15.35.35,0,0,0,.13-.64L49.4,33.49l-5.14,8.42a.35.35,0,0,1-.64-.13,4.55,4.55,0,0,0-2.13-3.25,4.61,4.61,0,1,0-4.83,7.86,4.6,4.6,0,0,0,3.89.43.34.34,0,0,1,.41.5l-5.14,8.42L58.07,69.32l5.14-8.42a.34.34,0,0,0-.4-.5,4.62,4.62,0,1,1,.94-8.29" fill="#f4e7ff" fill-rule="evenodd"/></g></svg>